<svg xmlns="http://www.w3.org/2000/svg" xmlns:xlink="http://www.w3.org/1999/xlink" width="183.06" height="25.215" viewBox="0 0 183.06 25.215">
  <defs>
    <clipPath id="clip-path">
      <rect id="Rectangle_17" data-name="Rectangle 17" width="183.06" height="25.215" fill="#fff"/>
    </clipPath>
  </defs>
  <g id="Group_2436" data-name="Group 2436" transform="translate(0 0)">
    <g id="Group_17" data-name="Group 17" transform="translate(0 0)" clip-path="url(#clip-path)">
      <path id="Path_1" data-name="Path 1" d="M6.319,10.252a9.771,9.771,0,0,1,7.452,16.092,12.543,12.543,0,0,0,2.692-.553A11.4,11.4,0,0,0,.553,9.884,12.6,12.6,0,0,0,0,12.57a9.737,9.737,0,0,1,6.319-2.318" transform="translate(0 -1.129)" fill="#fff"/>
      <path id="Path_2" data-name="Path 2" d="M6.249,19.081a2.713,2.713,0,1,1-2.017,3.263,2.712,2.712,0,0,1,2.017-3.263" transform="translate(-0.607 -2.773)" fill="#fff"/>
      <path id="Path_3" data-name="Path 3" d="M14.126,20.376A7.347,7.347,0,0,0,.278,16.952a12.528,12.528,0,0,0,.788,2.541,5.391,5.391,0,1,1,6.6,6.6,12.528,12.528,0,0,0,2.541.788,7.346,7.346,0,0,0,3.924-6.5" transform="translate(-0.041 -1.901)" fill="#fff"/>
      <path id="Path_4" data-name="Path 4" d="M25.644,12.607A12.608,12.608,0,0,0,2.945,5.05,13.808,13.808,0,0,1,20.593,22.7a12.587,12.587,0,0,0,5.051-10.091" transform="translate(-0.43 0)" fill="#fff"/>
      <path id="Path_5" data-name="Path 5" d="M42.3,21.7h4.874a4.03,4.03,0,0,0,2.877-.969,3.659,3.659,0,0,0,1.034-2.8,3.683,3.683,0,0,0-1.176-2.919,4.794,4.794,0,0,0-3.272-1.04H42.3Zm0-16.882v7.513h3.429a5.063,5.063,0,0,0,3.627-1.122,3.8,3.8,0,0,0,1.162-2.858A3.267,3.267,0,0,0,49.4,5.834a4.8,4.8,0,0,0-3.329-1.018ZM40.547,3.169h5.327a7.449,7.449,0,0,1,4.689,1.392,4.593,4.593,0,0,1,1.8,3.846,4.983,4.983,0,0,1-.949,3.069,4.059,4.059,0,0,1-2.451,1.6,4.535,4.535,0,0,1,2.791,1.467,4.842,4.842,0,0,1,1.175,3.446,5.217,5.217,0,0,1-1.487,3.891,5.815,5.815,0,0,1-4.266,1.467H40.547Z" transform="translate(-5.914 -0.461)" fill="#fff"/>
      <path id="Path_6" data-name="Path 6" d="M61.674,3.17V23.34H71.847v-1.7H63.431V3.17Z" transform="translate(-8.996 -0.463)" fill="#fff"/>
      <rect id="Rectangle_16" data-name="Rectangle 16" width="1.756" height="20.176" transform="translate(68.377 2.706)" fill="#fff"/>
      <path id="Path_7" data-name="Path 7" d="M90.07,23.34V3.17h2.409l4.874,8.53,5.385,9.459q-.058-3.113-.057-9.43V3.17h1.76V23.34h-2.412l-4.846-8.471L91.771,5.357q.055,3.231.056,9.459V23.34Z" transform="translate(-13.138 -0.463)" fill="#fff"/>
      <path id="Path_8" data-name="Path 8" d="M116.446,21.637h3.826a7.918,7.918,0,0,0,3.457-.717,6.091,6.091,0,0,0,2.381-1.947,9.07,9.07,0,0,0,1.318-2.691,10.932,10.932,0,0,0,.439-3.143A8.443,8.443,0,0,0,125.7,7.287a7.153,7.153,0,0,0-5.568-2.408h-3.685Zm-1.76-18.468h5.44a9.212,9.212,0,0,1,6.886,2.755,9.881,9.881,0,0,1,2.692,7.215,12.257,12.257,0,0,1-.992,4.983,8.672,8.672,0,0,1-3.189,3.741,9.183,9.183,0,0,1-5.256,1.482h-5.583Z" transform="translate(-16.728 -0.462)" fill="#fff"/>
      <path id="Path_9" data-name="Path 9" d="M144.18,23.343a7.393,7.393,0,0,1-7.056-5.016l3.06-1.115a5.6,5.6,0,0,0,1.8,2.187,4.173,4.173,0,0,0,2.477.822,3.15,3.15,0,0,0,2.1-.669,2.416,2.416,0,0,0,.172-3.411,2.463,2.463,0,0,0-.455-.392,14.707,14.707,0,0,0-3-1.658q-1.218-.528-1.954-.92a12.507,12.507,0,0,1-1.659-1.086,4.466,4.466,0,0,1-1.373-1.643,4.82,4.82,0,0,1-.454-2.117,4.7,4.7,0,0,1,1.685-3.662,6.446,6.446,0,0,1,4.434-1.49,6.357,6.357,0,0,1,3.811,1.171,5.558,5.558,0,0,1,2.168,2.982l-3.033,1a3.325,3.325,0,0,0-3.145-2.034,2.843,2.843,0,0,0-1.813.558,1.846,1.846,0,0,0-.709,1.532,1.664,1.664,0,0,0,.057.43,1.07,1.07,0,0,0,.2.39c.094.121.184.232.269.335a1.921,1.921,0,0,0,.4.333c.179.122.331.219.454.292s.307.171.553.293.435.209.567.264.35.152.652.293.521.237.652.293a21.129,21.129,0,0,1,1.983.989,15.685,15.685,0,0,1,1.756,1.213,5.144,5.144,0,0,1,1.473,1.783,5.019,5.019,0,0,1,.509,2.261,5.178,5.178,0,0,1-1.912,4.236,7.132,7.132,0,0,1-4.661,1.56" transform="translate(-20.001 -0.462)" fill="#fff"/>
      <path id="Path_10" data-name="Path 10" d="M158.721,3.17V6.2h4.139V20.318h-4.135V23.34H170.4V20.314h-4.165V6.2H170.4V3.17Z" transform="translate(-23.151 -0.463)" fill="#fff"/>
      <path id="Path_11" data-name="Path 11" d="M181.643,20.165h1.842a5.169,5.169,0,0,0,2.536-.6,4.317,4.317,0,0,0,1.686-1.615,8.067,8.067,0,0,0,.879-2.174,10.156,10.156,0,0,0,.284-2.418,8.774,8.774,0,0,0-1.275-4.808,4.21,4.21,0,0,0-3.8-2h-2.154Zm-3.371,3.206V3.343h4.986a10.065,10.065,0,0,1,3.486.572,7.771,7.771,0,0,1,2.593,1.517,8.3,8.3,0,0,1,1.723,2.246,10.634,10.634,0,0,1,1.006,2.72,14.128,14.128,0,0,1,.028,5.765,10.67,10.67,0,0,1-.964,2.7,8.524,8.524,0,0,1-1.714,2.317,7.619,7.619,0,0,1-2.65,1.59,10.33,10.33,0,0,1-3.628.6Z" transform="translate(-26.003 -0.488)" fill="#fff"/>
      <path id="Path_12" data-name="Path 12" d="M198.729,3.17V23.34h13.318V20.088H202.1V14.554H208.2V11.3H202.1V6.428h9.35V3.17Z" transform="translate(-28.986 -0.463)" fill="#fff"/>
    </g>
  </g>
</svg>
