<svg width="24" height="24" viewBox="0 0 24 24" fill="none" xmlns="http://www.w3.org/2000/svg">
<path d="M6.01467 8.683C7.78941 8.68282 9.52714 9.19042 11.0227 10.1459C12.5183 11.1014 13.7093 12.4648 14.4551 14.0752C15.2008 15.6857 15.4703 17.4759 15.2315 19.2345C14.9928 20.9931 14.2559 22.6467 13.1078 24C13.9786 23.9189 14.8379 23.7424 15.6701 23.4736C17.1699 21.3833 17.8782 18.8281 17.6686 16.2639C17.459 13.6997 16.3451 11.2935 14.5258 9.47443C12.7064 7.65542 10.2999 6.54201 7.73572 6.33289C5.17152 6.12377 2.61642 6.83253 0.526367 8.33272C0.258417 9.16325 0.0819167 10.0205 0 10.8894C1.67887 9.46232 3.81125 8.68009 6.01467 8.683Z" fill="white"/>
<path d="M5.37027 15.5219C5.86737 15.4045 6.38812 15.4372 6.86667 15.6158C7.34521 15.7943 7.76005 16.1108 8.05871 16.5252C8.35737 16.9395 8.52644 17.4332 8.54454 17.9436C8.56264 18.4541 8.42895 18.9584 8.16038 19.3929C7.89182 19.8274 7.50044 20.1725 7.03574 20.3845C6.57105 20.5965 6.05392 20.666 5.54975 20.5841C5.04558 20.5022 4.57702 20.2726 4.20334 19.9244C3.82965 19.5761 3.56763 19.1249 3.45041 18.6278C3.37247 18.2978 3.3603 17.9557 3.41461 17.621C3.46892 17.2863 3.58864 16.9656 3.76692 16.6771C3.94521 16.3887 4.17857 16.1382 4.45367 15.94C4.72878 15.7418 5.04024 15.5997 5.37027 15.5219Z" fill="white"/>
<path d="M13.4067 17.5846C13.4069 16.0217 12.8836 14.5038 11.9203 13.2731C10.957 12.0424 9.60923 11.1698 8.09205 10.7947C6.57486 10.4195 4.97573 10.5635 3.5499 11.2034C2.12406 11.8434 0.95369 12.9426 0.225586 14.3255C0.38905 15.156 0.640484 15.9668 0.975635 16.7441C1.20825 15.8736 1.66598 15.0797 2.30278 14.4422C2.93959 13.8048 3.73302 13.3463 4.60327 13.1127C5.47353 12.8792 6.38993 12.879 7.26031 13.1121C8.13069 13.3451 8.92435 13.8033 9.56148 14.4404C10.1986 15.0775 10.6567 15.8712 10.8898 16.7416C11.1229 17.6119 11.1226 18.5283 10.8891 19.3986C10.6556 20.2689 10.1971 21.0623 9.55963 21.6991C8.92217 22.3359 8.12827 22.7936 7.25778 23.0262C8.03508 23.3614 8.84585 23.6128 9.6764 23.7763C10.8034 23.183 11.747 22.2931 12.4052 21.2028C13.0634 20.1124 13.4114 18.863 13.4114 17.5893" fill="white"/>
<path d="M23.9997 11.9992C23.9994 9.47996 23.2063 7.02471 21.7327 4.98136C20.2592 2.93801 18.18 1.41021 15.7897 0.614437C13.3994 -0.181333 10.8194 -0.204708 8.41508 0.547626C6.0108 1.29996 3.90424 2.78984 2.39392 4.80616C4.73753 3.96889 7.27069 3.81424 9.69876 4.36017C12.1268 4.90611 14.35 6.1302 16.1096 7.89006C17.8693 9.64992 19.0931 11.8732 19.6388 14.3013C20.1845 16.7295 20.0295 19.2626 19.192 21.6061C20.6855 20.4897 21.8979 19.0401 22.7325 17.3726C23.5672 15.7051 24.0011 13.8658 23.9997 12.0011" fill="white"/>
</svg>
