<svg width="133" height="18" viewBox="0 0 133 18" fill="none" xmlns="http://www.w3.org/2000/svg">
<path d="M1.56216 16.5206H5.90555C6.84004 16.578 7.75998 16.2681 8.46934 15.6571C8.78967 15.3293 9.03729 14.9377 9.19606 14.5078C9.35483 14.0778 9.42118 13.6192 9.39078 13.1619C9.4191 12.6779 9.33981 12.1935 9.15861 11.7438C8.97741 11.294 8.69879 10.89 8.3428 10.5607C7.51862 9.90242 6.48003 9.5723 5.42701 9.63394H1.56216V16.5206ZM1.56216 1.47649V8.17159H4.61786C5.78415 8.27016 6.9431 7.91164 7.85001 7.17173C8.1911 6.84322 8.45949 6.44681 8.63786 6.00812C8.81622 5.56942 8.90059 5.0982 8.88551 4.62487C8.89276 4.20101 8.80735 3.78068 8.63527 3.39326C8.46318 3.00584 8.20857 2.66067 7.88922 2.38188C7.04871 1.71893 5.99017 1.39523 4.92263 1.47471L1.56216 1.47649ZM0 0.00700774H4.74708C6.23984 -0.0616216 7.71209 0.375439 8.92561 1.24747C9.44906 1.64748 9.86823 2.16794 10.1475 2.76462C10.4267 3.3613 10.5578 4.01658 10.5296 4.67477C10.5574 5.65476 10.26 6.61639 9.68396 7.40967C9.15857 8.14004 8.37984 8.64839 7.49979 8.83548C8.45852 8.95973 9.34095 9.42355 9.98695 10.1428C10.7222 10.9912 11.0978 12.0928 11.034 13.2136C11.0632 13.8516 10.9605 14.4888 10.7325 15.0853C10.5046 15.6819 10.1561 16.2251 9.70892 16.681C9.19428 17.1412 8.59289 17.4939 7.94006 17.7184C7.28723 17.9428 6.59613 18.0346 5.90733 17.9883H0V0.00700774Z" fill="white"/>
<path d="M16.0806 0.00610352V17.9803H25.1461V16.4654H17.6463V0.00610352H16.0806Z" fill="white"/>
<path d="M31.6354 0.00521851H30.0706V17.9848H31.6354V0.00521851Z" fill="white"/>
<path d="M37.6941 17.9803V0.00610352H39.8408L44.1842 7.60748L48.983 16.0367C48.9485 14.1873 48.9316 11.3862 48.9322 7.63333V0.00610352H50.5006V17.9803H48.3512L44.0327 10.4315L39.2099 1.95502C39.2426 3.87452 39.2592 6.68427 39.2598 10.3843V17.9803H37.6941Z" fill="white"/>
<path d="M57.9996 16.4636H61.4091C62.471 16.4852 63.524 16.2668 64.4898 15.8246C65.3338 15.4373 66.0644 14.8399 66.6116 14.0896C67.1333 13.3609 67.5302 12.5505 67.7861 11.6916C68.052 10.7819 68.1838 9.83839 68.1773 8.89072C68.2232 6.96959 67.5322 5.10371 66.2462 3.6758C65.6269 2.97638 64.8615 2.42163 64.004 2.05081C63.1466 1.68 62.2181 1.50218 61.2844 1.52994H58.0005L57.9996 16.4636ZM56.4312 0.00610255H61.279C62.4161 -0.0322611 63.5488 0.166172 64.6052 0.588808C65.6615 1.01144 66.6185 1.64906 67.4154 2.46118C68.2252 3.31773 68.8549 4.32819 69.267 5.43263C69.679 6.53707 69.8652 7.71301 69.8143 8.89072C69.833 10.4164 69.5319 11.9291 68.9303 13.3312C68.3244 14.6933 67.3375 15.8511 66.0885 16.665C64.6972 17.57 63.0637 18.0306 61.4046 17.9856H56.4294L56.4312 0.00610255Z" fill="white"/>
<path d="M79.7976 17.9839C78.4127 17.9943 77.0598 17.568 75.931 16.7655C74.8022 15.9631 73.955 14.8253 73.5098 13.5139L76.2366 12.5203C76.5955 13.2967 77.1478 13.9678 77.8407 14.4692C78.4792 14.9431 79.2529 15.1999 80.048 15.2017C80.7233 15.2349 81.3878 15.0232 81.9194 14.6056C82.3426 14.2227 82.5965 13.6874 82.6252 13.1175C82.654 12.5475 82.4552 11.9894 82.0727 11.5659C81.9523 11.4334 81.8161 11.3161 81.6672 11.2166C80.8367 10.6216 79.9395 10.1257 78.9938 9.73909C78.2702 9.42541 77.6898 9.15213 77.2525 8.91924C76.7349 8.63629 76.2405 8.31268 75.7741 7.95147C75.2536 7.56986 74.8337 7.06738 74.5506 6.48734C74.2744 5.89731 74.1361 5.25219 74.146 4.6008C74.1386 3.97954 74.2695 3.36441 74.5292 2.79998C74.7889 2.23556 75.1709 1.73599 75.6476 1.33747C76.752 0.415739 78.162 -0.0580832 79.5989 0.00967749C80.8135 -0.0156499 82.0042 0.350188 82.995 1.0532C83.9226 1.69337 84.6041 2.63076 84.927 3.71056L82.2242 4.6017C81.9932 4.05298 81.6023 3.58657 81.1024 3.26326C80.6024 2.93994 80.0167 2.77472 79.4216 2.78913C78.842 2.76503 78.2717 2.94055 77.8059 3.28638C77.5997 3.4473 77.4347 3.6551 77.3248 3.89254C77.2149 4.12997 77.1633 4.39019 77.1741 4.6516C77.1743 4.781 77.1913 4.90982 77.2249 5.03479C77.2597 5.16169 77.3204 5.28002 77.4031 5.38233C77.4869 5.49016 77.5671 5.58907 77.6428 5.68086C77.7477 5.79549 77.8676 5.89532 77.9993 5.97761C78.1588 6.08633 78.2943 6.17277 78.4039 6.23782C78.5135 6.30287 78.6775 6.3902 78.8967 6.49892C79.1159 6.60764 79.2843 6.68517 79.4019 6.73418C79.5196 6.78319 79.7139 6.86963 79.983 6.99528C80.2521 7.12093 80.4473 7.20648 80.564 7.25639C81.168 7.51905 81.7579 7.81323 82.3311 8.13772C82.8767 8.46209 83.3995 8.82324 83.896 9.21867C84.4484 9.6418 84.8973 10.1852 85.2086 10.8076C85.5149 11.4346 85.6702 12.1246 85.6622 12.8224C85.6919 13.5409 85.5534 14.2563 85.2576 14.9117C84.9617 15.5671 84.5168 16.1443 83.9583 16.5973C82.7823 17.5382 81.3103 18.0308 79.8048 17.9874" fill="white"/>
<path d="M89.9485 0.00610352V2.70624H93.6369V15.2873H89.9521V17.9803H100.356V15.2837H96.6445V2.70624H100.356V0.00610352H89.9485Z" fill="white"/>
<path d="M107.834 15.1287H109.475C110.262 15.1464 111.04 14.9623 111.735 14.594C112.358 14.2614 112.878 13.7634 113.237 13.1548C113.592 12.5506 113.855 11.898 114.021 11.2175C114.191 10.512 114.276 9.78852 114.274 9.06271C114.316 7.55482 113.922 6.06682 113.138 4.77814C112.785 4.20453 112.285 3.73638 111.689 3.42279C111.093 3.10921 110.424 2.96174 109.751 2.99587H107.832L107.834 15.1287ZM104.83 17.9856V0.137996H109.273C110.33 0.123436 111.382 0.296003 112.379 0.647725C113.23 0.943755 114.015 1.40295 114.69 1.99958C115.313 2.5739 115.832 3.2509 116.225 4.00107C116.634 4.7643 116.935 5.57984 117.122 6.42495C117.483 8.1175 117.492 9.86637 117.147 11.5623C116.97 12.3994 116.681 13.2087 116.288 13.9684C115.9 14.7384 115.383 15.4366 114.76 16.0332C114.078 16.6618 113.275 17.1441 112.399 17.4501C111.362 17.8202 110.267 18.0013 109.166 17.9848L104.83 17.9856Z" fill="white"/>
<path d="M120.401 0.00610352V17.9803H132.269V15.0823H123.405V10.1508H128.841V7.25103H123.405V2.90942H131.737V0.00610352H120.401Z" fill="white"/>
</svg>
